<?xml version="1.0" encoding="UTF-8"?>
<!DOCTYPE svg PUBLIC "-//W3C//DTD SVG 1.1//EN" "http://www.w3.org/Graphics/SVG/1.1/DTD/svg11.dtd">
<svg xmlns="http://www.w3.org/2000/svg" version="1.1" width="24px" height="25px" style="shape-rendering:geometricPrecision; text-rendering:geometricPrecision; image-rendering:optimizeQuality; fill-rule:evenodd; clip-rule:evenodd" xmlns:xlink="http://www.w3.org/1999/xlink">
<g><path style="opacity:0.819" fill="#000000" d="M 7.5,1.5 C 18.4856,0.652603 22.9856,5.6526 21,16.5C 19.4013,19.5585 16.9013,21.5585 13.5,22.5C 12.52,19.9135 12.1866,17.2469 12.5,14.5C 16.5,13.8333 16.5,13.1667 12.5,12.5C 12.5,11.1667 12.5,9.83333 12.5,8.5C 13.675,8.71901 14.675,8.38568 15.5,7.5C 11.0715,5.9478 9.40485,7.61446 10.5,12.5C 6.5,13.1667 6.5,13.8333 10.5,14.5C 10.8134,17.2469 10.48,19.9135 9.5,22.5C 2.23904,19.9784 -0.260961,14.9784 2,7.5C 3.35968,4.97739 5.19301,2.97739 7.5,1.5 Z"/></g>
</svg>
