<?xml version="1.0" encoding="UTF-8"?>
<!DOCTYPE svg PUBLIC "-//W3C//DTD SVG 1.1//EN" "http://www.w3.org/Graphics/SVG/1.1/DTD/svg11.dtd">
<svg xmlns="http://www.w3.org/2000/svg" version="1.1" width="24px" height="25px" style="shape-rendering:geometricPrecision; text-rendering:geometricPrecision; image-rendering:optimizeQuality; fill-rule:evenodd; clip-rule:evenodd" xmlns:xlink="http://www.w3.org/1999/xlink">
<g><path style="opacity:0.652" fill="#000000" d="M 4.5,2.5 C 9.17853,2.33418 13.8452,2.50085 18.5,3C 19,3.5 19.5,4 20,4.5C 20.8037,9.75132 20.637,14.918 19.5,20C 2.43228,24.8221 -2.56772,18.9888 4.5,2.5 Z M 5.5,5.5 C 8.8499,5.33499 12.1832,5.50166 15.5,6C 14.3508,7.7441 13.0175,7.91077 11.5,6.5C 7.19029,7.63293 5.69029,10.2996 7,14.5C 9.41772,16.6801 12.0844,17.0135 15,15.5C 16.5822,13.3763 16.7488,11.2096 15.5,9C 16.6667,8.5 17.5,7.66667 18,6.5C 18.6667,10.1667 18.6667,13.8333 18,17.5C 5.82867,21.5887 1.662,17.5887 5.5,5.5 Z M 10.5,9.5 C 13.9563,10.5362 14.2896,12.2029 11.5,14.5C 9.29572,13.218 8.96238,11.5514 10.5,9.5 Z"/></g>
</svg>
