<?xml version="1.0" encoding="UTF-8"?>
<!DOCTYPE svg PUBLIC "-//W3C//DTD SVG 1.1//EN" "http://www.w3.org/Graphics/SVG/1.1/DTD/svg11.dtd">
<svg xmlns="http://www.w3.org/2000/svg" version="1.1" width="24px" height="25px" style="shape-rendering:geometricPrecision; text-rendering:geometricPrecision; image-rendering:optimizeQuality; fill-rule:evenodd; clip-rule:evenodd" xmlns:xlink="http://www.w3.org/1999/xlink">
<g><path style="opacity:0.818" fill="#000000" d="M 2.5,2.5 C 8.5,2.5 14.5,2.5 20.5,2.5C 20.5,8.83333 20.5,15.1667 20.5,21.5C 14.5,21.5 8.5,21.5 2.5,21.5C 2.5,15.1667 2.5,8.83333 2.5,2.5 Z M 6.5,5.5 C 7.77329,6.07683 7.77329,6.7435 6.5,7.5C 5.53705,7.03017 5.53705,6.3635 6.5,5.5 Z M 13.5,9.5 C 17.4198,10.8896 18.4198,13.5563 16.5,17.5C 15.5344,15.604 15.2011,13.604 15.5,11.5C 14.1667,11.5 12.8333,11.5 11.5,11.5C 11.7989,13.604 11.4656,15.604 10.5,17.5C 9.52577,15.2573 9.19244,12.924 9.5,10.5C 11.099,10.7678 12.4324,10.4345 13.5,9.5 Z M 5.5,10.5 C 6.72507,11.1522 7.39174,12.3189 7.5,14C 7.16667,15.1667 6.83333,16.3333 6.5,17.5C 5.52577,15.2573 5.19244,12.924 5.5,10.5 Z"/></g>
</svg>
